<?xml version="1.0" encoding="utf-8"?>
<!-- Generator: Adobe Illustrator 25.2.0, SVG Export Plug-In . SVG Version: 6.00 Build 0)  -->
<svg version="1.1" id="Layer_1" xmlns="http://www.w3.org/2000/svg" xmlns:xlink="http://www.w3.org/1999/xlink" x="0px" y="0px"
	 viewBox="0 0 800 800" style="enable-background:new 0 0 800 800;" xml:space="preserve">
<style type="text/css">
	.st0{fill:#F6F6F6;}
</style>
<path id="XMLID_802_" class="st0" d="M212.6,275H71.8c-6.2,0-11.3,5.1-11.3,11.3v452.3c0,6.2,5.1,11.3,11.3,11.3h140.8
	c6.2,0,11.3-5.1,11.3-11.3V286.3C223.9,280,218.8,275,212.6,275z"/>
<path id="XMLID_803_" class="st0" d="M142.2,50.1c-51.2,0-92.9,41.6-92.9,92.8c0,51.2,41.7,92.8,92.9,92.8
	c51.2,0,92.8-41.6,92.8-92.8C235.1,91.7,193.4,50.1,142.2,50.1z"/>
<path id="XMLID_804_" class="st0" d="M570.7,263.7c-56.5,0-98.3,24.3-123.7,51.9v-29.4c0-6.2-5.1-11.3-11.3-11.3H300.9
	c-6.2,0-11.3,5.1-11.3,11.3v452.3c0,6.2,5.1,11.3,11.3,11.3h140.5c6.2,0,11.3-5.1,11.3-11.3V514.8c0-75.4,20.5-104.8,73.1-104.8
	c57.3,0,61.8,47.1,61.8,108.7v219.9c0,6.2,5.1,11.3,11.3,11.3h140.5c6.2,0,11.3-5.1,11.3-11.3V490.5
	C750.7,378.3,729.3,263.7,570.7,263.7z"/>
</svg>
