<?xml version="1.0" encoding="utf-8"?>
<!-- Generator: Adobe Illustrator 25.2.0, SVG Export Plug-In . SVG Version: 6.00 Build 0)  -->
<svg version="1.1" id="圖層_1" xmlns="http://www.w3.org/2000/svg" xmlns:xlink="http://www.w3.org/1999/xlink" x="0px" y="0px"
	 viewBox="0 0 80 80" style="enable-background:new 0 0 80 80;" xml:space="preserve">
<style type="text/css">
	.st0{fill:#F6F6F6;}
</style>
<g>
	<path class="st0" d="M41.4,15.4h-2.6H19.3v54.5h9.8V49h4.6v0h2.9v0v-2.8V46v-0.9v-1v-1v-0.2v-3v0h-7.4V24.5h9.5h2.9v-2.9v-0.1v-0.9
		v-1v-1v-0.2v-3l0,0L41.4,15.4L41.4,15.4z M26.2,21.5v21.4h7.6v0.2v1v1V46h-7.6v21h-3.8V18.4h16.4v0.2v1v1v0.9H26.2z"/>
	<polygon class="st0" points="32.3,51.1 32.3,56.5 32.3,58.2 32.3,60 32.3,61.7 32.3,66.6 35.1,66.6 35.1,61.7 35.1,60 35.1,58.2 
		35.1,56.5 35.1,51.1 	"/>
	<g>
		<path class="st0" d="M48.3,32.4c-1.6,1.4-4.4,2.1-8.4,2.1h-1.5h-6.2v3h6.2H40c4.8,0,8.2-0.9,10.4-2.8c2.2-1.9,3.3-4.6,3.3-8
			c0-2.5-0.6-4.6-1.9-6.4c-1.3-1.8-3-3-5.2-3.6c-0.9-0.2-1.2-0.4-3.2-0.5v3c3.7,0,5,1.6,5.8,2.8c0.9,1.3,1.4,2.8,1.4,4.7
			C50.6,29.2,49.9,31.1,48.3,32.4z"/>
		<path class="st0" d="M58.9,18.7c-1.2-2.4-2.7-4.2-4.6-5.6c-1.9-1.3-4.2-2.2-7-2.7c-1.3-0.2-2.6-0.5-5-0.5H26.2v3h16.2
			c1.8,0.1,3.3,0.2,4.5,0.4c2.3,0.4,4.2,1.1,5.8,2.2c1.5,1,2.7,2.5,3.6,4.4c0.9,1.9,1.4,4.1,1.4,6.4c0,4-1.2,7.3-3.8,10.1
			c-2.5,2.7-7.2,4.1-14,4.1h-1.4v3h1.4c7.8,0,13.1-1.7,16.2-5c3-3.3,4.6-7.4,4.6-12.1C60.6,23.6,60.1,21,58.9,18.7z"/>
	</g>
</g>
</svg>
